<svg width="23" height="23" viewBox="0 0 23 23" xmlns="http://www.w3.org/2000/svg">
<path d="M22.296 0.703825C21.7495 0.157319 20.873 0.157319 20.3265 0.703825L11.4999 9.53042L2.67331 0.703825C2.12681 0.157319 1.25033 0.157319 0.703825 0.703825C0.157319 1.25033 0.157319 2.12681 0.703825 2.67331L9.53042 11.4999L0.703825 20.3265C0.157319 20.873 0.157319 21.7495 0.703825 22.296C0.971923 22.5641 1.33282 22.7085 1.68341 22.7085C2.034 22.7085 2.3949 22.5744 2.663 22.296L11.4896 13.4694L20.3162 22.296C20.5843 22.5641 20.9452 22.7085 21.2958 22.7085C21.6567 22.7085 22.0073 22.5744 22.2754 22.296C22.8219 21.7495 22.8219 20.873 22.2754 20.3265L13.4694 11.4999L22.296 2.67331C22.8425 2.12681 22.8425 1.25033 22.296 0.703825Z" fill="currentColor"/>
</svg>
